<svg width="150" height="140" viewBox="0 0 150 140" fill="none" xmlns="http://www.w3.org/2000/svg">
<rect width="150" height="140" fill="#F3F3F3"/>
<path d="M30.0902 97.8422C33.5626 97.8422 36.3776 95.016 36.3776 91.5298C36.3776 88.0436 33.5626 85.2174 30.0902 85.2174C26.6177 85.2174 23.8027 88.0436 23.8027 91.5298C23.8027 95.016 26.6177 97.8422 30.0902 97.8422Z" fill="#1FA6F2"/>
<path d="M133.478 79.9342L149.292 95.8107L133.481 111.464L133.406 111.538L133.367 111.636C126.927 127.912 111.161 139.5 92.7395 139.5H44.2365C20.0385 139.5 0.5 119.887 0.5 95.5878C0.5 77.3111 11.8229 61.4844 27.8072 55.0207L28.5058 54.7382L27.974 54.2043L21.0129 47.2156C10.4288 36.5894 10.4288 19.095 21.0129 8.46879C31.596 -2.15626 49.0178 -2.15626 59.6008 8.46879L70.6038 19.5155L70.9581 19.8712L71.3123 19.5155L82.3153 8.46879C87.3868 3.37714 94.2207 0.5 101.497 0.5C108.773 0.5 115.607 3.37714 120.679 8.46879C131.263 19.095 131.263 36.5894 120.679 47.2156L112.146 55.7824L111.663 56.2673L112.272 56.58C121.821 61.485 129.371 69.7346 133.368 79.7664L133.406 79.8616L133.478 79.9342ZM81.9611 125.621H82.4611V125.121V66.5056H81.9611V66.0056H66.9162H66.4162V66.5056V125.121V125.621H66.9162H81.9611ZM95.8832 52.3519H96.0909L96.2375 52.2047L110.833 37.5509C115.968 32.3961 115.968 23.7392 110.833 18.5843C105.698 13.4284 97.0717 13.4284 91.9362 18.5843L59.3763 51.2736L58.5268 52.1264H59.7305H92.7395C93.2692 52.1264 93.7481 52.1794 94.2559 52.236L94.2657 52.2371C94.7655 52.2929 95.294 52.3519 95.8832 52.3519ZM60.3093 30.3368L60.6608 29.9839L60.3093 29.631L49.3063 18.5843C44.1721 13.4297 35.5492 13.4284 30.4131 18.5804C25.0431 23.7415 25.056 32.1764 30.4092 37.5509L41.4122 48.5976L41.7665 48.9533L42.1207 48.5976L60.3093 30.3368ZM48.3293 66.5056V66.0056H47.8293H43.7874C27.3418 66.0056 14.0958 79.3071 14.0958 95.8132C14.0958 112.319 27.3418 125.621 43.7874 125.621H47.8293H48.3293V125.121V66.5056ZM100.772 123.768V124.442L101.417 124.247C113.525 120.577 122.431 109.113 122.431 95.8132C122.431 82.513 113.525 71.0495 101.417 67.3798L100.772 67.1843V67.8583V123.768Z" fill="#1FA6F2" stroke="#F3F3F3"/>
<path d="M83 65.5V74H75V65.5H83Z" fill="#F3F3F3"/>
</svg>
